<?xml version="1.0" standalone="no"?>
<!DOCTYPE svg PUBLIC "-//W3C//DTD SVG 20010904//EN"
 "http://www.w3.org/TR/2001/REC-SVG-20010904/DTD/svg10.dtd">
<svg version="1.0" xmlns="http://www.w3.org/2000/svg"
 width="176.000000pt" height="176.000000pt" viewBox="0 0 176.000000 176.000000"
 preserveAspectRatio="xMidYMid meet">

<g transform="translate(0.000000,176.000000) scale(0.100000,-0.100000)"
fill="#000000" stroke="none">
<path d="M810 1500 c-183 -33 -326 -173 -359 -354 -6 -33 -11 -154 -11 -270 0
-303 19 -374 128 -488 171 -180 453 -180 624 0 109 114 128 185 128 488 0 116
-5 237 -11 270 -36 194 -196 339 -394 357 -33 3 -80 2 -105 -3z m267 -108 c57
-29 107 -81 141 -145 25 -48 27 -61 27 -162 0 -101 -2 -115 -29 -170 -41 -84
-124 -163 -218 -210 -101 -49 -135 -49 -236 0 -95 47 -177 127 -216 208 -76
162 -33 364 95 453 65 45 103 52 254 50 122 -2 146 -5 182 -24z m-517 -662 c0
-20 -5 -30 -15 -30 -10 0 -15 10 -15 30 0 20 5 30 15 30 10 0 15 -10 15 -30z
m670 0 c0 -20 -5 -30 -15 -30 -10 0 -15 10 -15 30 0 20 5 30 15 30 10 0 15
-10 15 -30z m-672 -121 c-1 -13 -7 -23 -13 -22 -13 3 -18 30 -11 50 10 24 29
1 24 -28z m670 0 c-1 -13 -7 -23 -13 -22 -13 3 -18 30 -11 50 10 24 29 1 24
-28z m-554 -34 c8 -21 -3 -45 -20 -45 -9 0 -14 11 -14 30 0 32 23 42 34 15z
m221 -15 c0 -27 -22 -39 -31 -16 -8 22 3 49 19 43 6 -2 12 -14 12 -27z m225 0
c0 -19 -5 -30 -14 -30 -17 0 -28 24 -20 45 11 27 34 17 34 -15z m-332 -64 c-2
-12 -10 -21 -18 -21 -16 0 -25 28 -16 52 9 23 38 -4 34 -31z m220 3 c-4 -28
-31 -32 -36 -6 -5 23 18 51 30 39 6 -6 8 -20 6 -33z m-333 -39 c8 -24 -1 -40
-21 -40 -9 0 -14 11 -14 30 0 35 25 42 35 10z m220 -10 c0 -13 -6 -25 -12 -27
-16 -6 -27 21 -19 43 9 23 31 11 31 -16z m225 0 c0 -19 -5 -30 -14 -30 -20 0
-29 16 -21 40 10 32 35 25 35 -10z m-335 -60 c0 -36 -29 -33 -33 3 -3 23 0 28
15 25 12 -2 18 -12 18 -28z m223 3 c-3 -30 -25 -42 -34 -19 -9 22 2 46 21 46
12 0 15 -8 13 -27z"/>
<path d="M704 1361 c-49 -22 -110 -89 -137 -150 -15 -34 -21 -67 -21 -126 0
-69 4 -90 31 -146 39 -85 113 -159 200 -200 84 -40 122 -40 206 0 87 41 161
115 200 200 27 56 31 77 31 146 0 94 -21 149 -80 214 -62 69 -80 75 -245 77
-121 2 -153 -1 -185 -15z m64 -186 c37 -31 53 -71 82 -202 13 -57 26 -103 30
-103 4 0 17 46 30 103 29 131 45 171 82 202 58 49 138 22 138 -46 0 -43 -56
-99 -98 -99 -49 0 -47 18 3 40 71 30 81 90 15 90 -45 0 -65 -38 -100 -183 -51
-213 -49 -207 -70 -207 -21 0 -19 -6 -70 207 -36 152 -56 186 -104 181 -27 -3
-31 -7 -31 -33 0 -26 6 -33 48 -53 52 -25 54 -42 5 -42 -42 0 -98 56 -98 99 0
68 80 95 138 46z"/>
</g>
</svg>
